<svg width="40" height="40" viewBox="0 0 40 40" fill="none" xmlns="http://www.w3.org/2000/svg">
<g id="icon/menu">
<path id="Union" d="M9.01216 28.8996C8.64604 29.2657 8.66583 29.8791 9.05635 30.2696C9.44687 30.6601 10.0603 30.6799 10.4264 30.3138L19.6629 21.0773L28.8995 30.314C29.2656 30.6801 29.879 30.6603 30.2695 30.2698C30.6601 29.8792 30.6799 29.2659 30.3137 28.8997L21.0771 19.6631L30.3137 10.4264C30.6799 10.0603 30.6601 9.44693 30.2696 9.05641C29.879 8.66588 29.2657 8.64609 28.8995 9.01221L19.6629 18.2489L10.4264 9.01236C10.0602 8.64625 9.44687 8.66603 9.05634 9.05656C8.66582 9.44708 8.64603 10.0605 9.01215 10.4266L18.2487 19.6631L9.01216 28.8996Z" fill="white"/>
</g>
</svg>
