<svg width="32" height="32" viewBox="0 0 32 32" fill="none" xmlns="http://www.w3.org/2000/svg">
<g opacity="0.1">
<path d="M29.575 11.825C29.55 11.825 29.55 11.825 29.525 11.825C28.8 11.825 28.075 11.8 27.375 11.825C27.275 11.825 27.2 11.825 27.15 11.8C26.85 10.325 26.275 8.97501 25.475 7.75001C25.525 7.67501 25.6 7.60001 25.725 7.47501C26.2 6.97501 26.7 6.50001 27.2 6.00001C26.325 4.77501 25.25 3.70001 24.025 2.82501C23.525 3.35001 22.975 3.85001 22.475 4.37501C22.4 4.45001 22.35 4.50001 22.275 4.52501C21.075 3.72501 19.7 3.15001 18.225 2.87501C18.2 2.82501 18.2 2.77501 18.2 2.72501C18.225 2.32501 18.2 1.95001 18.2 1.55001C18.2 1.17501 18.2 0.825012 18.2 0.450012C17.475 0.375012 16.75 0.325012 16 0.325012C15.25 0.325012 14.525 0.375012 13.8 0.500012C13.825 0.875012 13.8 1.22501 13.8 1.60001C13.8 2.00001 13.8 2.37501 13.8 2.77501C13.8 2.82501 13.8 2.90001 13.775 2.92501C12.3 3.22501 10.925 3.80001 9.725 4.57501C9.65 4.55001 9.6 4.50001 9.525 4.42501C9.025 3.90001 8.5 3.40001 7.975 2.87501C6.75 3.75001 5.675 4.82501 4.8 6.05001C5.3 6.52501 5.775 7.02501 6.275 7.52501C6.4 7.65001 6.475 7.72501 6.525 7.80001C5.75 9.00001 5.15 10.35 4.875 11.825C4.8 11.85 4.725 11.85 4.65 11.85C3.925 11.825 3.2 11.85 2.475 11.85C2.45 11.85 2.45 11.85 2.425 11.85C2.3 12.575 2.25 13.325 2.25 14.1C2.25 14.85 2.3 15.6 2.425 16.325C2.45 16.325 2.475 16.325 2.525 16.325C3.275 16.325 4.025 16.325 4.8 16.325C4.825 16.325 4.85 16.325 4.875 16.325C5.175 17.825 5.775 19.2 6.575 20.425C6.55 20.475 6.525 20.5 6.475 20.55C5.975 21 5.5 21.5 5 21.975C4.95 22.025 4.9 22.075 4.85 22.125C5.725 23.325 6.775 24.4 8 25.25L8.05 25.2C8.575 24.675 9.1 24.15 9.625 23.625C9.675 23.575 9.7 23.55 9.75 23.525C10.55 24.05 11.425 24.5 12.375 24.8V19.975C12.25 19.9 12.125 19.8 12 19.725C11.4 19.3 10.85 18.75 10.4 18.15C9.775 17.3 9.35 16.3 9.175 15.2C9.125 14.825 9.075 14.45 9.075 14.075C9.075 13.7 9.1 13.3 9.175 12.95C9.35 11.875 9.775 10.875 10.4 10.025C10.85 9.40001 11.375 8.87501 12 8.42501C12.85 7.82501 13.85 7.40001 14.925 7.22501C15.275 7.17501 15.65 7.12501 16.025 7.12501C16.4 7.12501 16.775 7.15001 17.125 7.22501C18.2 7.40001 19.2 7.82501 20.05 8.42501C20.675 8.87501 21.2 9.40001 21.65 10.025C22.25 10.875 22.7 11.875 22.875 12.95C22.925 13.325 22.975 13.7 22.975 14.075C22.975 14.45 22.95 14.825 22.875 15.2C22.7 16.275 22.275 17.3 21.65 18.15C21.2 18.75 20.675 19.3 20.05 19.725C19.925 19.825 19.8 19.9 19.675 19.975V24.825C20.6 24.5 21.475 24.075 22.3 23.55C22.35 23.575 22.375 23.6 22.425 23.65C22.95 24.175 23.475 24.7 24 25.225C24.025 25.25 24.025 25.25 24.05 25.275C25.25 24.4 26.325 23.35 27.2 22.15C27.15 22.1 27.1 22.05 27.05 22C26.575 21.525 26.075 21.025 25.6 20.55C25.55 20.5 25.525 20.475 25.5 20.425C26.325 19.2 26.9 17.825 27.2 16.325C27.225 16.325 27.25 16.325 27.275 16.325C28.025 16.325 28.775 16.325 29.55 16.325C29.575 16.325 29.6 16.325 29.65 16.325C29.775 15.6 29.825 14.85 29.825 14.1C29.75 13.325 29.7 12.575 29.575 11.825Z" fill="white"/>
<path d="M21.125 14.15C21.125 12.4 20.25 10.875 18.925 9.95C18.825 9.875 18.725 9.825 18.625 9.75V10.025V13.55C18.625 14.225 18.075 14.775 17.4 14.775H14.6C13.925 14.775 13.375 14.225 13.375 13.55V10.05V9.75C13.25 9.825 13.15 9.9 13.05 9.975C11.75 10.9 10.9 12.425 10.875 14.15C10.875 14.2 10.875 14.25 10.875 14.325C10.925 16 11.775 17.475 13.05 18.375C13.275 18.525 13.5 18.65 13.725 18.775V29.35C13.7 30.575 14.625 31.575 15.85 31.7C15.9 31.7 15.95 31.7 15.975 31.7C17.225 31.7 18.25 30.7 18.25 29.45V18.775C18.475 18.675 18.675 18.55 18.875 18.4C20.2 17.5 21.075 15.975 21.1 14.275C21.125 14.225 21.125 14.2 21.125 14.15Z" fill="white"/>
</g>
</svg>
