<svg width="32" height="32" viewBox="0 0 32 32" fill="none" xmlns="http://www.w3.org/2000/svg">
<g id="icon/services" opacity="0.2">
<g id="Union">
<path d="M22.2101 11.8417C22.62 11.8417 23.0131 11.6789 23.3029 11.389C23.5928 11.0992 23.7556 10.7061 23.7556 10.2962C23.7556 9.88634 23.5928 9.49325 23.3029 9.20342C23.0131 8.91359 22.62 8.75077 22.2101 8.75077C21.8003 8.75077 21.4072 8.91359 21.1173 9.20342C20.8275 9.49325 20.6647 9.88634 20.6647 10.2962C20.6647 10.7061 20.8275 11.0992 21.1173 11.389C21.4072 11.6789 21.8003 11.8417 22.2101 11.8417Z" fill="white"/>
<path fill-rule="evenodd" clip-rule="evenodd" d="M22.2406 18.5926C26.8225 18.5926 30.5369 14.8782 30.5369 10.2963C30.5369 5.71438 26.8225 2 22.2406 2C17.6587 2 13.9443 5.71438 13.9443 10.2963C13.9443 11.4852 14.1944 12.6156 14.6448 13.638L13.3841 16.4095C13.2397 16.7269 13.5276 17.07 13.8653 16.9829L16.5146 16.2998C18.0035 17.7203 20.0202 18.5926 22.2406 18.5926ZM20.4224 6.17499C20.0573 6.17499 19.7195 6.36821 19.5344 6.6829L17.7162 9.77381C17.5265 10.0962 17.5265 10.4961 17.7162 10.8186L19.5344 13.9095C19.7195 14.2242 20.0573 14.4174 20.4224 14.4174H24.0588C24.4239 14.4174 24.7617 14.2242 24.9468 13.9095L26.765 10.8186C26.9547 10.4961 26.9547 10.0962 26.765 9.77381L24.9468 6.6829C24.7617 6.36821 24.4239 6.17499 24.0588 6.17499H20.4224Z" fill="white"/>
<path d="M20.8738 25.4319C21.3577 26.0194 21.3205 27.2678 20.6876 27.7451C18.1933 29.6177 17.7093 29.838 16.5552 29.9848C10.9337 30.2786 7.35975 26.2397 5.57278 23.5961C1.9616 18.2354 1.14257 15.8121 1.62654 12.9849C2.33389 9.12959 5.68446 7.47733 5.68446 7.47733C6.42904 7.07344 7.24807 7.03672 7.69481 7.69763C7.99264 8.17495 8.92336 9.60691 8.92336 9.60691C10.003 11.3326 10.5986 13.352 8.55107 14.4536C8.4887 14.4905 8.41982 14.5292 8.34641 14.5705C7.7626 14.8989 6.89222 15.3885 6.72687 16.3996C6.39181 18.419 9.51902 22.0907 11.0454 23.4492C12.5906 24.7939 13.4208 23.9741 14.0576 23.3452C14.2032 23.2014 14.3388 23.0676 14.4704 22.9719C16.7574 21.0981 17.8473 22.2413 19.1543 23.6123C19.2302 23.692 19.3069 23.7724 19.3846 23.8531L20.8738 25.4319Z" fill="white"/>
</g>
</g>
</svg>
