<svg width="32" height="32" viewBox="0 0 32 32" fill="none" xmlns="http://www.w3.org/2000/svg">
<g id="icon/services" opacity="0.2">
<g id="Union">
<path d="M15.4002 23.1999H14.8002C14.4689 23.1999 14.2002 23.4687 14.2002 23.7999V24.6749C10.3627 23.8812 7.4377 20.5999 7.16895 16.5999H8.8002C9.13145 16.5999 9.4002 16.3312 9.4002 15.9999V15.3999C9.4002 15.0687 9.13145 14.7999 8.8002 14.7999H7.23145C7.7377 11.0749 10.5564 8.07495 14.2002 7.32495V8.19995C14.2002 8.5312 14.4689 8.79995 14.8002 8.79995H15.4002C15.7314 8.79995 16.0002 8.5312 16.0002 8.19995V5.8187C16.0002 5.4687 15.7002 5.19995 15.3502 5.2187C14.9627 5.2437 14.5752 5.28745 14.2002 5.3562C9.09395 6.2062 5.2002 10.6499 5.2002 15.9999C5.2002 21.3499 9.09395 25.7937 14.2002 26.6437C14.5752 26.7062 14.9564 26.7562 15.3502 26.7812C15.7002 26.8062 16.0002 26.5312 16.0002 26.1812V23.7999C16.0002 23.4687 15.7314 23.1999 15.4002 23.1999Z" fill="white"/>
<path d="M16.0001 14.5C16.8313 14.5 17.5001 15.1688 17.5001 16C17.5001 16.825 16.8251 17.5 16.0001 17.5C15.1688 17.5 14.5001 16.825 14.5001 16C14.5001 15.8063 14.5376 15.625 14.6063 15.4563L10.7376 12.95C10.6001 12.8625 10.5626 12.675 10.6501 12.5375C10.7376 12.4 10.9251 12.3625 11.0626 12.45L14.9313 14.95C15.2001 14.675 15.5813 14.5 16.0001 14.5Z" fill="white"/>
<path d="M18.4251 10.15H17.9751C17.7001 10.15 17.4751 9.92505 17.4751 9.65005V6.42505C17.4751 6.15005 17.7001 5.92505 17.9751 5.92505H19.5626C19.8376 5.92505 20.0626 6.15005 20.0626 6.42505V6.65005C20.0626 6.92505 19.8376 7.15005 19.5626 7.15005H18.9251V7.4188H19.5188C19.7938 7.4188 20.0188 7.6438 20.0188 7.9188V8.15005C20.0188 8.42505 19.7938 8.65005 19.5188 8.65005H18.9251V9.65005C18.9251 9.92505 18.7001 10.15 18.4251 10.15Z" fill="white"/>
<path d="M18.8938 24.8438H19.6751C19.9501 24.8375 20.1751 25.0625 20.1751 25.3438V25.5751C20.1751 25.85 19.9501 26.0751 19.6751 26.0751H18.0563C17.7188 26.0751 17.4438 25.8 17.4438 25.4625V22.4625C17.4438 22.125 17.7188 21.85 18.0563 21.85H19.6188C19.8938 21.85 20.1188 22.075 20.1188 22.35V22.5751C20.1188 22.85 19.8938 23.0751 19.6188 23.0751H18.8938V23.3125H19.5501C19.8251 23.3125 20.0501 23.5375 20.0501 23.8125V24.0438C20.0501 24.3188 19.8251 24.5438 19.5501 24.5438H18.8938V24.8438Z" fill="white"/>
<path fill-rule="evenodd" clip-rule="evenodd" d="M16 1C7.7125 1 1 7.7125 1 16C1 24.2875 7.7125 31 16 31C24.2875 31 31 24.2812 31 16C31 7.71875 24.2812 1 16 1ZM16 28.3C9.20625 28.3 3.7 22.7938 3.7 16C3.7 9.20625 9.20625 3.7 16 3.7C22.7938 3.7 28.3 9.20625 28.3 16C28.3 22.7938 22.7938 28.3 16 28.3Z" fill="white"/>
</g>
</g>
</svg>
