<svg width="32" height="32" viewBox="0 0 32 32" fill="none" xmlns="http://www.w3.org/2000/svg">
<g id="icon/services">
<g id="Union">
<path d="M23.342 7.33842L27.0786 6.79904C27.1734 6.78535 27.2494 6.73398 27.2973 6.65098C27.3453 6.56798 27.3518 6.47654 27.3163 6.38754L25.9151 2.88192C25.871 2.77173 25.7743 2.70104 25.6559 2.69254C25.5376 2.68398 25.4316 2.74017 25.3723 2.84292L24.7918 3.84842C24.3753 3.54781 23.9437 3.26857 23.4988 3.01179C16.3256 -1.12965 7.15326 1.32804 3.01188 8.50123C2.82182 8.83042 2.64567 9.16382 2.48323 9.50075C2.64871 9.36336 2.81763 9.24143 2.98354 9.13832C3.21107 8.99692 3.45772 8.90618 3.70925 8.8642C3.89242 8.7103 4.10427 8.58837 4.3369 8.50722C5.0468 8.25959 5.8151 8.09603 6.5636 7.99958C10.3544 3.51782 16.922 2.2494 22.1847 5.28785C22.6301 5.5448 23.0591 5.82912 23.4693 6.13916L23.0369 6.88792C22.9776 6.99066 22.9819 7.11041 23.0484 7.20866C23.1149 7.30691 23.2246 7.35535 23.342 7.33842Z" fill="#FFB800"/>
<path d="M3.82688 20.0835C4.07026 19.943 4.18313 19.664 4.10607 19.3939C3.8338 18.4393 3.67575 17.4526 3.63795 16.456C2.76687 15.6713 1.91076 14.5402 1.23918 13.3247C0.803608 15.7294 0.971194 18.182 1.68445 20.4688C1.74107 20.6502 1.86482 20.7829 2.04182 20.852C2.21882 20.9212 2.39982 20.9075 2.56438 20.8125L3.82688 20.0835Z" fill="#FFB800"/>
<path d="M9.81545 26.7122C9.3701 26.4552 8.94111 26.1709 8.53095 25.8609L8.96001 25.1177C9.01932 25.015 9.01501 24.8952 8.94851 24.7969C8.88201 24.6987 8.77238 24.6502 8.65488 24.6672L4.91832 25.2065C4.82345 25.2202 4.74757 25.2717 4.69963 25.3547C4.6517 25.4377 4.64513 25.5291 4.6807 25.6181L6.08188 29.1237C6.12588 29.2339 6.2227 29.3047 6.34101 29.3131C6.45938 29.3216 6.56526 29.2654 6.62457 29.1627L7.20832 28.1516C7.62487 28.4522 8.05643 28.7314 8.50132 28.9882C15.6745 33.1296 24.8468 30.6719 28.9883 23.4987C30.2737 21.2722 30.9232 18.8531 30.9933 16.4517L30.5062 17.7806C29.9065 19.4218 28.6633 20.7016 27.1465 21.3639C27.013 21.6406 26.8683 21.9143 26.7123 22.1847C26.4305 22.6727 26.1204 23.1343 25.7854 23.5686C25.7715 24.0659 25.6109 24.5625 25.297 24.988C24.8252 25.6299 24.2781 26 23.5002 26L23.2871 25.9989C19.4546 28.7886 14.1853 29.2351 9.81545 26.7122Z" fill="#FFB800"/>
<path d="M21.189 12.266C19.9463 11.9045 18.879 11.5947 17.8491 11.2957L17.8375 11.2923C16.8057 10.9928 15.8108 10.704 14.7139 10.3848L18.3847 8.07248C18.5308 7.98121 18.7109 7.97614 18.8618 8.05726L22.4938 10.0197C22.6301 10.0957 22.7274 10.2327 22.7469 10.3949C22.7712 10.5572 22.7177 10.7194 22.6057 10.8361L21.189 12.266Z" fill="#FFB800"/>
<path d="M3.06818 12.5095C2.7759 11.9942 3.48419 11.1819 4.03911 10.837C6.26866 13.2336 8.39566 13.6283 8.49003 13.6445C8.51689 13.6492 8.54376 13.6514 8.57014 13.6514C8.80406 13.6514 9.0104 13.4753 9.04986 13.2272C9.09384 12.9514 8.91531 12.6909 8.65097 12.6444C8.61727 12.6379 6.88519 12.2923 4.99552 10.3956C6.63187 9.82483 8.88093 9.76184 10.035 10.0755C15.4926 11.6626 17.0943 12.1292 17.5033 12.2509L17.552 12.261C17.5714 12.2711 17.5958 12.2762 17.625 12.2813L23.5208 14.0003C24.5623 14.2902 25.1176 13.5969 26.1923 12.2551C26.7356 11.5768 27.4116 10.7327 28.3503 9.76615C28.472 9.62925 28.6473 9.57345 28.8177 9.60895L30.619 10.0248C30.7554 10.0603 30.8771 10.1515 30.9404 10.2834C31.0085 10.4102 31.0182 10.5623 30.9696 10.7043L28.6278 17.0935C27.9301 19.0041 25.9887 20.1441 24.0952 19.8014L21.7681 19.3957L23.7301 23.2597C23.8177 23.4321 23.8031 23.645 23.6863 23.8022C23.5938 23.929 23.4477 24 23.3017 24C23.2627 24 23.2286 24 23.1946 23.9898L19.2852 23.0873C19.1829 23.067 19.0904 23.0061 19.0223 22.925L15.1761 18.2547C14.6434 18.1617 14.1261 18.0753 13.624 17.9915C8.76583 17.1803 5.32858 16.6064 3.06818 12.5095Z" fill="#FFB800"/>
</g>
</g>
</svg>
