<svg width="32" height="32" viewBox="0 0 32 32" fill="none" xmlns="http://www.w3.org/2000/svg">
<g id="icon/services" opacity="0.2">
<g id="Union">
<path d="M23.642 4.77803C22.5248 5.44021 20.8108 6.67012 18.8799 8.09126L8.84899 7.78106C8.28576 7.76082 7.72519 7.86305 7.20485 8.08089L5.12904 8.93403C4.94814 8.95392 4.96835 9.13767 5.15733 9.19127L13.8107 11.959C11.2107 13.9558 8.90203 15.7718 7.8934 16.5894C7.71332 16.7343 7.50381 16.8368 7.27984 16.8898C7.05586 16.9427 6.82298 16.9447 6.59783 16.8955L4.36146 16.4385C4.0048 16.352 3.63 16.3945 3.30177 16.5588L2 17.2747L6.98311 20.632C7.23376 20.8021 7.52634 20.8971 7.82723 20.9061C8.12812 20.9151 8.42513 20.8378 8.68414 20.683C10.7535 19.4549 16.1931 16.1416 20.2139 13.412C29.1314 7.2614 30.0837 6.26403 29.9948 5.45555C29.8553 4.18771 26.0956 3.28082 23.642 4.77803Z" fill="white"/>
<path d="M3.46732 26.5393C2.99329 26.5393 2.60902 26.9235 2.60902 27.3976C2.60902 27.8716 2.99329 28.2559 3.46731 28.2559H28.7915C29.2655 28.2559 29.6498 27.8716 29.6498 27.3976C29.6498 26.9235 29.2655 26.5393 28.7915 26.5393H3.46732Z" fill="white"/>
</g>
</g>
</svg>
