<svg width="32" height="32" viewBox="0 0 32 32" fill="none" xmlns="http://www.w3.org/2000/svg">
<g id="icon/services">
<g id="Union">
<path d="M28.4094 25.3828C28.5862 25.336 28.7266 25.2008 28.7786 25.0241C29.3453 23.0846 28.8046 20.9892 27.3799 19.5593C26.6598 18.8394 25.7547 18.3326 24.7646 18.095C23.7745 17.8573 22.738 17.898 21.7696 18.2127L13.7883 10.2314C14.4226 8.26072 13.9131 6.09251 12.4364 4.62104C11.7358 3.91915 10.8592 3.41887 9.89853 3.17275C8.93786 2.92664 7.92865 2.94378 6.97689 3.22236C6.89009 3.24772 6.81137 3.29521 6.74846 3.36018C6.68555 3.42514 6.64062 3.50535 6.61807 3.59292C6.59552 3.6805 6.59613 3.77243 6.61984 3.8597C6.64355 3.94696 6.68955 4.02656 6.75331 4.09069L9.47787 6.81525L9.2075 9.20184L6.81571 9.47742L4.09114 6.75286C3.96116 6.62287 3.77397 6.57087 3.59199 6.61767C3.4152 6.65926 3.27482 6.79965 3.22282 6.97124C2.94385 7.92379 2.92651 8.93388 3.17262 9.89544C3.41873 10.857 3.91921 11.7346 4.6215 12.436C5.34135 13.1563 6.2462 13.6637 7.23621 13.9022C8.22621 14.1408 9.26288 14.1012 10.2318 13.7878L18.2079 21.7691C17.9397 22.5987 17.8716 23.4798 18.009 24.3407C18.1464 25.2016 18.4856 26.0178 18.9987 26.7226C19.5118 27.4274 20.1844 28.0008 20.9615 28.396C21.7385 28.7912 22.5981 28.997 23.4698 28.9965C23.9846 28.9965 24.5098 28.9237 25.0245 28.7781C25.2013 28.7261 25.3365 28.5857 25.3833 28.4038C25.4301 28.227 25.3781 28.0398 25.2481 27.9098L22.5235 25.1852L22.7991 22.7934L25.1857 22.5231L27.9103 25.2476C27.9743 25.3119 28.0542 25.3582 28.1418 25.3819C28.2294 25.4056 28.3217 25.406 28.4094 25.3828Z" fill="#FFB800"/>
<path d="M14.2097 20.0999L14.7868 20.6718L15.4784 21.3634C15.6811 21.5662 15.6811 21.8989 15.4784 22.1017C15.3809 22.1984 15.2491 22.2527 15.1118 22.2527C14.9745 22.2527 14.8427 22.1984 14.7452 22.1017L14.4228 21.7741L9.2649 26.9321C8.67735 27.5196 7.91302 27.8108 7.14349 27.8108C6.75015 27.8117 6.36054 27.7345 5.99728 27.5836C5.63401 27.4328 5.3043 27.2113 5.02727 26.9321C3.86258 25.7674 3.86258 23.8695 5.02727 22.6996L10.18 17.5469L9.85765 17.2245C9.65487 17.0217 9.65487 16.689 9.85765 16.4862C10.0604 16.2834 10.388 16.2834 10.5908 16.4862L11.2823 17.1777L11.8595 17.7497L12.291 17.3181L14.6412 19.6683L14.2097 20.0999Z" fill="#FFB800"/>
<path d="M25.3679 10.2259L23.6052 10.6991L19.664 14.6404L17.3138 12.2902L21.255 8.34891L21.7334 6.58626C21.7698 6.45627 21.853 6.34708 21.9674 6.27429L25.5187 4.10608C25.6184 4.04502 25.7359 4.0195 25.852 4.03366C25.9681 4.04782 26.076 4.10083 26.1582 4.18407L27.7753 5.79593C27.9417 5.96232 27.9729 6.22749 27.8481 6.43548L25.6799 9.99716C25.6071 10.1064 25.4979 10.1895 25.3679 10.2259Z" fill="#FFB800"/>
</g>
</g>
</svg>
