<svg width="32" height="32" viewBox="0 0 32 32" fill="none" xmlns="http://www.w3.org/2000/svg">
<g id="icon/services" opacity="0.2">
<g id="Union">
<path d="M3 27V12C3 9.79086 4.79086 8 7 8H25C27.2091 8 29 9.79086 29 12V26.75C29 27.4404 29.5596 28 30.25 28C30.9404 28 31.5 27.4404 31.5 26.75V8.72727C31.5 4.73576 28.2642 1.5 24.2727 1.5H8.22727C4.23576 1.5 1 4.73576 1 8.72727V27C1 27.5523 1.44772 28 2 28C2.55228 28 3 27.5523 3 27Z" fill="white"/>
<path fill-rule="evenodd" clip-rule="evenodd" d="M16.548 13.3174V10.5484C16.548 10.4029 16.4902 10.2635 16.3874 10.1606C16.2845 10.0578 16.1451 10 15.9996 10C15.8542 10 15.7147 10.0578 15.6119 10.1606C15.509 10.2635 15.4512 10.4029 15.4512 10.5484V13.3174C14.0755 13.454 12.8493 14.099 11.9633 15.0619C11.9194 15.0255 11.8698 14.9959 11.8161 14.9746L9.07415 13.8778C9.00727 13.8511 8.93578 13.8378 8.86376 13.8387C8.79175 13.8396 8.72061 13.8547 8.65442 13.8831C8.58824 13.9115 8.52829 13.9526 8.478 14.0042C8.42772 14.0557 8.38808 14.1167 8.36136 14.1836C8.33463 14.2505 8.32134 14.3219 8.32225 14.394C8.32315 14.466 8.33823 14.5371 8.36662 14.6033C8.39502 14.6695 8.43617 14.7294 8.48773 14.7797C8.5393 14.83 8.60026 14.8696 8.66714 14.8964L11.2986 15.9489C10.8016 16.7741 10.5158 17.7408 10.5158 18.7742C10.5158 18.9124 10.5209 19.0494 10.5309 19.185L4.05835 17.6914C3.98817 17.6752 3.91548 17.673 3.84445 17.6849C3.77342 17.6968 3.70543 17.7226 3.64436 17.7608C3.58329 17.799 3.53035 17.8488 3.48854 17.9075C3.44674 17.9662 3.4169 18.0325 3.40073 18.1027C3.38455 18.1728 3.38236 18.2455 3.39428 18.3166C3.40619 18.3876 3.43198 18.4556 3.47017 18.5166C3.50837 18.5777 3.55821 18.6307 3.61687 18.6725C3.67552 18.7143 3.74183 18.7441 3.81202 18.7603L6.66811 19.4194C6.0338 19.6477 5.58027 20.2548 5.58027 20.9677C5.58027 21.8763 6.31683 22.6129 7.22543 22.6129C8.13403 22.6129 8.87059 21.8763 8.87059 20.9677C8.87059 20.5213 8.69276 20.1164 8.40408 19.82L10.7489 20.3611C11.4294 22.616 13.5228 24.2581 15.9996 24.2581C18.4765 24.2581 20.5698 22.616 21.2504 20.3611L23.5951 19.82C23.3065 20.1164 23.1287 20.5213 23.1287 20.9677C23.1287 21.8763 23.8652 22.6129 24.7738 22.6129C25.6824 22.6129 26.419 21.8763 26.419 20.9677C26.419 20.2548 25.9655 19.6478 25.3312 19.4194L28.1874 18.7603C28.3291 18.7276 28.4521 18.64 28.5292 18.5166C28.6064 18.3933 28.6313 18.2444 28.5987 18.1027C28.566 17.9609 28.4784 17.8379 28.355 17.7608C28.2317 17.6837 28.0828 17.6587 27.941 17.6914L21.4683 19.1851C21.4784 19.0494 21.4835 18.9124 21.4835 18.7742C21.4835 17.7408 21.1976 16.7741 20.7007 15.949L23.3322 14.8964C23.3991 14.8696 23.4601 14.83 23.5116 14.7797C23.5632 14.7294 23.6043 14.6695 23.6327 14.6033C23.6611 14.5371 23.6762 14.466 23.6771 14.394C23.678 14.3219 23.6647 14.2505 23.638 14.1836C23.6113 14.1167 23.5716 14.0557 23.5213 14.0042C23.4711 13.9526 23.4111 13.9115 23.3449 13.8831C23.2787 13.8547 23.2076 13.8396 23.1356 13.8387C23.0636 13.8378 22.9921 13.8511 22.9252 13.8778L20.1833 14.9746C20.1295 14.996 20.0799 15.0255 20.036 15.0619C19.1499 14.099 17.9238 13.454 16.548 13.3174ZM15.3903 20.7829C15.5707 20.9034 15.7827 20.9677 15.9996 20.9677C16.2904 20.9674 16.5692 20.8517 16.7748 20.6461C16.9804 20.4405 17.0961 20.1617 17.0964 19.871C17.0964 19.654 17.0321 19.442 16.9116 19.2616C16.791 19.0813 16.6197 18.9407 16.4193 18.8577C16.2189 18.7747 15.9984 18.7529 15.7857 18.7953C15.5729 18.8376 15.3775 18.942 15.2241 19.0954C15.0707 19.2488 14.9662 19.4442 14.9239 19.657C14.8816 19.8698 14.9033 20.0903 14.9863 20.2907C15.0693 20.4911 15.2099 20.6624 15.3903 20.7829ZM17.6448 17.129H14.3545C14.209 17.129 14.0695 17.0713 13.9667 16.9684C13.8638 16.8656 13.8061 16.7261 13.8061 16.5806C13.8061 16.4352 13.8638 16.2957 13.9667 16.1929C14.0695 16.09 14.209 16.0323 14.3545 16.0323H17.6448C17.7902 16.0323 17.9297 16.09 18.0326 16.1929C18.1354 16.2957 18.1932 16.4352 18.1932 16.5806C18.1932 16.7261 18.1354 16.8656 18.0326 16.9684C17.9297 17.0713 17.7902 17.129 17.6448 17.129Z" fill="white"/>
<path d="M14.9028 27C14.7574 27 14.6179 26.9422 14.5151 26.8394C14.4122 26.7365 14.3545 26.5971 14.3545 26.4516V25.3548C14.3545 25.2094 14.4122 25.0699 14.5151 24.9671C14.6179 24.8642 14.7574 24.8065 14.9028 24.8065C15.0483 24.8065 15.1878 24.8642 15.2906 24.9671C15.3935 25.0699 15.4512 25.2094 15.4512 25.3548V26.4516C15.4512 26.5971 15.3935 26.7365 15.2906 26.8394C15.1878 26.9422 15.0483 27 14.9028 27Z" fill="white"/>
<path d="M16.7086 26.8394C16.8115 26.9422 16.951 27 17.0964 27C17.2418 27 17.3813 26.9422 17.4842 26.8394C17.587 26.7365 17.6448 26.5971 17.6448 26.4516V25.3548C17.6448 25.2094 17.587 25.0699 17.4842 24.9671C17.3813 24.8642 17.2418 24.8065 17.0964 24.8065C16.951 24.8065 16.8115 24.8642 16.7086 24.9671C16.6058 25.0699 16.548 25.2094 16.548 25.3548V26.4516C16.548 26.5971 16.6058 26.7365 16.7086 26.8394Z" fill="white"/>
</g>
</g>
</svg>
