<svg width="68" height="72" viewBox="0 0 68 72" fill="none" xmlns="http://www.w3.org/2000/svg">
<g id="icon">
<g id="Vector" filter="url(#filter0_d_63_1506)">
<path d="M47.575 27.825C47.55 27.825 47.55 27.825 47.525 27.825C46.8 27.825 46.075 27.8 45.375 27.825C45.275 27.825 45.2 27.825 45.15 27.8C44.85 26.325 44.275 24.975 43.475 23.75C43.525 23.675 43.6 23.6 43.725 23.475C44.2 22.975 44.7 22.5 45.2 22C44.325 20.775 43.25 19.7 42.025 18.825C41.525 19.35 40.975 19.85 40.475 20.375C40.4 20.45 40.35 20.5 40.275 20.525C39.075 19.725 37.7 19.15 36.225 18.875C36.2 18.825 36.2 18.775 36.2 18.725C36.225 18.325 36.2 17.95 36.2 17.55C36.2 17.175 36.2 16.825 36.2 16.45C35.475 16.375 34.75 16.325 34 16.325C33.25 16.325 32.525 16.375 31.8 16.5C31.825 16.875 31.8 17.225 31.8 17.6C31.8 18 31.8 18.375 31.8 18.775C31.8 18.825 31.8 18.9 31.775 18.925C30.3 19.225 28.925 19.8 27.725 20.575C27.65 20.55 27.6 20.5 27.525 20.425C27.025 19.9 26.5 19.4 25.975 18.875C24.75 19.75 23.675 20.825 22.8 22.05C23.3 22.525 23.775 23.025 24.275 23.525C24.4 23.65 24.475 23.725 24.525 23.8C23.75 25 23.15 26.35 22.875 27.825C22.8 27.85 22.725 27.85 22.65 27.85C21.925 27.825 21.2 27.85 20.475 27.85C20.45 27.85 20.45 27.85 20.425 27.85C20.3 28.575 20.25 29.325 20.25 30.1C20.25 30.85 20.3 31.6 20.425 32.325C20.45 32.325 20.475 32.325 20.525 32.325C21.275 32.325 22.025 32.325 22.8 32.325C22.825 32.325 22.85 32.325 22.875 32.325C23.175 33.825 23.775 35.2 24.575 36.425C24.55 36.475 24.525 36.5 24.475 36.55C23.975 37 23.5 37.5 23 37.975C22.95 38.025 22.9 38.075 22.85 38.125C23.725 39.325 24.775 40.4 26 41.25L26.05 41.2C26.575 40.675 27.1 40.15 27.625 39.625C27.675 39.575 27.7 39.55 27.75 39.525C28.55 40.05 29.425 40.5 30.375 40.8V35.975C30.25 35.9 30.125 35.8 30 35.725C29.4 35.3 28.85 34.75 28.4 34.15C27.775 33.3 27.35 32.3 27.175 31.2C27.125 30.825 27.075 30.45 27.075 30.075C27.075 29.7 27.1 29.3 27.175 28.95C27.35 27.875 27.775 26.875 28.4 26.025C28.85 25.4 29.375 24.875 30 24.425C30.85 23.825 31.85 23.4 32.925 23.225C33.275 23.175 33.65 23.125 34.025 23.125C34.4 23.125 34.775 23.15 35.125 23.225C36.2 23.4 37.2 23.825 38.05 24.425C38.675 24.875 39.2 25.4 39.65 26.025C40.25 26.875 40.7 27.875 40.875 28.95C40.925 29.325 40.975 29.7 40.975 30.075C40.975 30.45 40.95 30.825 40.875 31.2C40.7 32.275 40.275 33.3 39.65 34.15C39.2 34.75 38.675 35.3 38.05 35.725C37.925 35.825 37.8 35.9 37.675 35.975V40.825C38.6 40.5 39.475 40.075 40.3 39.55C40.35 39.575 40.375 39.6 40.425 39.65C40.95 40.175 41.475 40.7 42 41.225C42.025 41.25 42.025 41.25 42.05 41.275C43.25 40.4 44.325 39.35 45.2 38.15C45.15 38.1 45.1 38.05 45.05 38C44.575 37.525 44.075 37.025 43.6 36.55C43.55 36.5 43.525 36.475 43.5 36.425C44.325 35.2 44.9 33.825 45.2 32.325C45.225 32.325 45.25 32.325 45.275 32.325C46.025 32.325 46.775 32.325 47.55 32.325C47.575 32.325 47.6 32.325 47.65 32.325C47.775 31.6 47.825 30.85 47.825 30.1C47.75 29.325 47.7 28.575 47.575 27.825Z" fill="#FFB800"/>
</g>
<g id="Vector_2" filter="url(#filter1_d_63_1506)">
<path d="M39.125 30.15C39.125 28.4 38.25 26.875 36.925 25.95C36.825 25.875 36.725 25.825 36.625 25.75V26.025V29.55C36.625 30.225 36.075 30.775 35.4 30.775H32.6C31.925 30.775 31.375 30.225 31.375 29.55V26.05V25.75C31.25 25.825 31.15 25.9 31.05 25.975C29.75 26.9 28.9 28.425 28.875 30.15C28.875 30.2 28.875 30.25 28.875 30.325C28.925 32 29.775 33.475 31.05 34.375C31.275 34.525 31.5 34.65 31.725 34.775V45.35C31.7 46.575 32.625 47.575 33.85 47.7C33.9 47.7 33.95 47.7 33.975 47.7C35.225 47.7 36.25 46.7 36.25 45.45V34.775C36.475 34.675 36.675 34.55 36.875 34.4C38.2 33.5 39.075 31.975 39.1 30.275C39.125 30.225 39.125 30.2 39.125 30.15Z" fill="#FFB800"/>
</g>
</g>
<defs>
<filter id="filter0_d_63_1506" x="0.25" y="0.325012" width="67.5752" height="64.95" filterUnits="userSpaceOnUse" color-interpolation-filters="sRGB">
<feFlood flood-opacity="0" result="BackgroundImageFix"/>
<feColorMatrix in="SourceAlpha" type="matrix" values="0 0 0 0 0 0 0 0 0 0 0 0 0 0 0 0 0 0 127 0" result="hardAlpha"/>
<feOffset dy="4"/>
<feGaussianBlur stdDeviation="10"/>
<feComposite in2="hardAlpha" operator="out"/>
<feColorMatrix type="matrix" values="0 0 0 0 1 0 0 0 0 0.72 0 0 0 0 0 0 0 0 0.2 0"/>
<feBlend mode="normal" in2="BackgroundImageFix" result="effect1_dropShadow_63_1506"/>
<feBlend mode="normal" in="SourceGraphic" in2="effect1_dropShadow_63_1506" result="shape"/>
</filter>
<filter id="filter1_d_63_1506" x="8.875" y="9.75" width="50.25" height="61.95" filterUnits="userSpaceOnUse" color-interpolation-filters="sRGB">
<feFlood flood-opacity="0" result="BackgroundImageFix"/>
<feColorMatrix in="SourceAlpha" type="matrix" values="0 0 0 0 0 0 0 0 0 0 0 0 0 0 0 0 0 0 127 0" result="hardAlpha"/>
<feOffset dy="4"/>
<feGaussianBlur stdDeviation="10"/>
<feComposite in2="hardAlpha" operator="out"/>
<feColorMatrix type="matrix" values="0 0 0 0 1 0 0 0 0 0.72 0 0 0 0 0 0 0 0 0.2 0"/>
<feBlend mode="normal" in2="BackgroundImageFix" result="effect1_dropShadow_63_1506"/>
<feBlend mode="normal" in="SourceGraphic" in2="effect1_dropShadow_63_1506" result="shape"/>
</filter>
</defs>
</svg>
