<svg width="140" height="63" viewBox="0 0 140 63" fill="none" xmlns="http://www.w3.org/2000/svg">
<g clip-path="url(#clip0_202_171)">
<path d="M79.7872 63C79.6768 62.9667 79.5683 62.9252 79.4561 62.901C77.8239 62.5483 76.7669 61.1909 76.8166 59.5091C76.8615 57.9997 78.1088 56.6452 79.6679 56.4126C81.4028 56.1539 83.062 57.226 83.478 58.8745C83.9397 60.7038 82.7817 62.5145 80.9048 62.901C80.7828 62.926 80.6643 62.9667 80.544 63H79.7869H79.7872ZM80.1942 57.2792C78.8407 57.2837 77.7945 58.33 77.795 59.6712C77.7955 61.1523 79.0249 62.0876 80.1877 62.0812C81.5475 62.0735 82.5994 61.0203 82.5951 59.6642C82.5908 58.3114 81.5472 57.2749 80.194 57.2795L80.1942 57.2792Z" fill="white"/>
<path d="M62.9652 50.8177H49.5054C49.5037 50.4086 49.5016 50.0043 49.501 49.6001C49.5002 49.192 49.501 48.7843 49.501 48.3763V29.8964C47.5643 29.832 45.6582 29.7687 43.738 29.7048C43.7274 29.7609 43.7126 29.8104 43.7096 29.8607C43.6541 30.7721 43.6282 31.6861 43.5408 32.5945C43.2535 35.5815 42.5754 38.4715 41.2043 41.1719C39.0874 45.3407 35.7826 48.2054 31.3374 49.8013C29.7236 50.3807 28.0579 50.7501 26.3576 50.9803C24.3419 51.2534 22.3168 51.3144 20.2873 51.2327C17.7011 51.1286 15.1615 50.7469 12.7049 49.9128C9.77822 48.919 7.23588 47.3465 5.16907 45.0602C3.48581 43.1984 2.29105 41.0604 1.47039 38.7123C0.921021 37.1402 0.556401 35.5256 0.325132 33.88C0.0892642 32.1992 -0.000538552 30.5104 2.42806e-06 28.8147C0.00297782 19.4944 0.00135488 10.1741 0.00135488 0.85411C0.00135488 0.740726 0.00135488 0.627077 0.00135488 0.497192H13.4536C13.4536 0.627343 13.4536 0.74951 13.4536 0.87141C13.4536 10.307 13.4536 19.7425 13.4534 29.1781C13.4534 30.1804 13.4661 31.1817 13.5819 32.1792C13.7398 33.5422 14.0263 34.8725 14.613 36.1264C15.1921 37.3648 16.0184 38.3911 17.2378 39.0802C18.0206 39.5225 18.8637 39.7996 19.7488 39.9452C21.3108 40.202 22.8721 40.1927 24.4223 39.8536C25.7258 39.5683 26.8867 39.0126 27.8183 38.0483C28.564 37.2764 29.0609 36.3568 29.4263 35.3643C29.8058 34.3338 30.0149 33.266 30.1394 32.1792C30.2527 31.1905 30.2711 30.198 30.2711 29.2047C30.2714 27.5729 30.2711 25.9413 30.2711 24.3095V23.9733C30.0739 23.9494 29.8989 23.9246 29.7228 23.9073C28.5483 23.7929 27.3733 23.6816 26.1991 23.5659C25.7152 23.5182 25.2319 23.4618 24.7485 23.4096C24.5305 23.3859 24.3576 23.2922 24.2321 23.1099C23.9643 22.7208 23.6895 22.3367 23.4209 21.9482C23.2291 21.6706 23.2611 21.5471 23.5605 21.3788C23.5978 21.3581 23.6411 21.3477 23.6987 21.3259C23.8634 21.5556 24.0317 21.7733 24.181 22.003C24.3287 22.2303 24.5272 22.3485 24.7996 22.3743C25.3914 22.4307 25.9819 22.4999 26.5732 22.5598C27.577 22.6615 28.5811 22.7613 29.5851 22.8592C30.5892 22.9572 31.5938 23.0532 32.5984 23.1475C33.6747 23.2486 34.7515 23.3434 35.8278 23.4469C36.7693 23.5374 37.7098 23.6359 38.6509 23.7319C39.5919 23.8278 40.5324 23.9281 41.4737 24.0202C42.3433 24.1054 43.2138 24.1823 44.0839 24.2632C45.1513 24.3625 46.2186 24.4623 47.286 24.5621C48.2995 24.6568 49.313 24.7516 50.3266 24.8471C51.3939 24.9477 52.461 25.0484 53.5284 25.1506C53.923 25.1884 54.3174 25.2267 54.7112 25.2714C54.8156 25.2834 54.9168 25.3196 55.0409 25.3499C54.9828 25.5133 54.8822 25.6086 54.7586 25.6776C53.8178 26.2013 52.8765 26.7236 51.9327 27.2423C51.7258 27.3559 51.5002 27.407 51.2598 27.4145C50.7374 27.4307 50.2154 27.4608 49.6931 27.484C49.6409 27.4864 49.5884 27.4792 49.5048 27.4749V25.8093C47.5687 25.6288 45.6617 25.4511 43.7223 25.2703V27.6679C43.4621 27.6815 43.2305 27.6966 42.9987 27.7054C41.873 27.748 40.7469 27.7863 39.6211 27.8334C39.4429 27.8409 39.2611 27.8683 39.0899 27.9167C38.8048 27.9971 38.5259 28.0996 38.2468 28.1994C38.2005 28.2159 38.1672 28.2675 38.0777 28.3479C38.2568 28.3764 38.3677 28.403 38.4802 28.4105C39.0017 28.4448 39.5232 28.4802 40.0452 28.5036C41.0807 28.5499 42.1167 28.5869 43.1521 28.6319C43.365 28.6412 43.5843 28.6074 43.7869 28.7133C43.8224 28.732 43.8754 28.7184 43.9206 28.7189C44.56 28.7243 45.1997 28.7192 45.8389 28.737C47.2714 28.777 48.7036 28.8283 50.1362 28.8749C50.1813 28.8765 50.2262 28.8808 50.2711 28.8802C50.4991 28.877 50.6382 28.9917 50.7234 29.1932C50.7786 29.3236 50.8394 29.4543 50.9184 29.5717C51.2549 30.0715 51.7288 30.3188 52.3415 30.2682C52.9609 30.2171 53.579 30.1503 54.1976 30.0886C55.1656 29.9922 56.1337 29.8964 57.1015 29.7966C58.4007 29.6625 59.6991 29.5227 60.9982 29.3888C61.7239 29.3141 62.4502 29.2449 63.1765 29.1743C64.0788 29.0865 64.9414 28.8392 65.7959 28.5531C67.2422 28.0692 68.6147 27.4299 69.9406 26.6871C73.236 24.8408 76.5338 22.9989 79.8295 21.1537C80.675 20.6802 81.52 20.2062 82.3594 19.7225C84.0781 18.7322 85.6596 17.5637 87.0791 16.1861C87.7529 15.5322 88.4397 14.891 89.107 14.2307C89.7402 13.6041 89.8895 12.8509 89.6109 12.0234C89.4091 11.4235 88.985 11.0059 88.3783 10.8047C87.945 10.6609 87.4957 10.5569 87.0475 10.4637C86.1403 10.275 85.2309 10.0954 84.3185 9.93247C83.7305 9.82761 83.1541 9.89175 82.5985 10.1284C81.86 10.443 81.1808 10.8627 80.4868 11.2566C80.341 11.3394 80.1952 11.4222 80.0177 11.523V0.498789H93.433V22.2814C93.3166 22.2814 93.2182 22.2846 93.12 22.2808C91.8682 22.2327 90.6161 22.1912 89.3645 22.1326C87.7532 22.0573 86.1422 21.9748 84.5317 21.8813C83.9117 21.8454 83.2928 21.7813 82.6761 21.7094C82.4097 21.6783 82.1424 21.6157 81.8884 21.53C81.655 21.4512 81.454 21.4728 81.2409 21.5795C79.8922 22.254 78.5387 22.9188 77.1917 23.5965C75.6041 24.3952 74.0215 25.2033 72.437 26.0079C72.3507 26.0518 72.2668 26.1002 72.1703 26.1532C72.296 26.2615 72.4262 26.237 72.5468 26.225C73.2909 26.1516 74.034 26.0699 74.7781 25.9959C75.6206 25.9123 76.4638 25.8314 77.3069 25.7545C78.2401 25.6693 79.1735 25.5884 80.107 25.5085C80.8341 25.4465 81.5622 25.3933 82.289 25.3289C83.3391 25.2357 84.3886 25.1388 85.4378 25.0382C86.4243 24.9435 87.4097 24.8392 88.3959 24.7436C89.6959 24.6174 90.9977 24.5081 92.2961 24.3675C93.0502 24.2858 93.7757 24.0782 94.4833 23.8009C95.2855 23.4863 96.1 23.201 96.9115 22.9092C96.9783 22.8853 97.0819 22.8802 97.1354 22.9154C97.3599 23.0628 97.5736 23.2265 97.7865 23.3899C97.8249 23.4195 97.8422 23.4759 97.8822 23.5414C97.1657 23.885 96.4194 24.1094 95.6889 24.3742C94.9545 24.6403 94.2271 24.9251 93.4573 25.2166V50.7805C93.2314 50.8398 80.3664 50.8545 80.005 50.8002V31.1391C79.9731 31.097 79.9685 31.0888 79.962 31.0832C79.9555 31.0779 79.9471 31.0726 79.939 31.0715C79.8947 31.0656 79.8503 31.0563 79.8059 31.0563C74.226 31.0566 68.6461 31.0577 63.0664 31.0595C63.0415 31.0595 63.0163 31.0726 62.9663 31.0864V50.818L62.9652 50.8177Z" fill="white"/>
<path d="M110.352 34.4626C110.418 34.8514 110.461 35.203 110.54 35.5469C110.985 37.4798 112.155 38.8787 113.868 39.8648C114.852 40.4317 115.928 40.745 117.049 40.9182C118.267 41.1062 119.49 41.1338 120.715 41.0167C122.056 40.8884 123.336 40.5613 124.498 39.856C126.363 38.7232 126.673 36.7896 126.363 35.4181C126.227 34.8176 125.902 34.3261 125.423 33.9335C124.954 33.5499 124.419 33.2774 123.863 33.0421C122.907 32.6386 121.908 32.3709 120.898 32.1446C118.704 31.653 116.506 31.1779 114.307 30.7031C111.648 30.1288 109.027 29.4357 106.501 28.4182C104.717 27.6995 103.134 26.6985 101.804 25.3158C100.182 23.6308 99.1937 21.6391 98.775 19.3648C98.4747 17.7341 98.3693 16.0911 98.5148 14.4393C98.7163 12.1525 99.4664 10.048 100.754 8.13164C102.239 5.91987 104.195 4.20928 106.528 2.90377C108.725 1.67413 111.076 0.865008 113.561 0.420791C115.789 0.0223531 118.035 -0.0806499 120.292 0.0585505C123.556 0.260032 126.679 0.996223 129.61 2.45237C132.026 3.65247 134.114 5.25075 135.771 7.37069C137.155 9.14091 138.11 11.1054 138.55 13.3041C138.723 14.1678 138.808 15.0398 138.819 15.9191C138.82 15.9716 138.812 16.0243 138.808 16.0743C138.615 16.1291 126.1 16.1454 125.744 16.0908C125.707 15.8436 125.681 15.5891 125.628 15.3394C125.1 12.8208 123.548 11.2369 121.053 10.5374C119.914 10.2183 118.746 10.1691 117.568 10.2471C116.646 10.3083 115.746 10.4693 114.884 10.8073C114.329 11.025 113.807 11.3032 113.347 11.6824C112.554 12.3359 112.13 13.179 112.016 14.1843C111.965 14.6376 111.971 15.0861 112.068 15.5332C112.211 16.1943 112.558 16.7267 113.105 17.1336C113.715 17.5879 114.407 17.8879 115.121 18.1408C116.224 18.5315 117.363 18.8011 118.506 19.046C120.635 19.5016 122.77 19.9309 124.9 20.3797C127.43 20.9128 129.922 21.5763 132.314 22.5624C133.911 23.2206 135.335 24.1338 136.565 25.3385C138.114 26.8555 139.131 28.6574 139.595 30.7587C139.989 32.5401 140.094 34.3418 139.916 36.1532C139.623 39.1342 138.453 41.7609 136.535 44.0746C134.991 45.9366 133.104 47.3813 130.954 48.5021C128.657 49.699 126.217 50.4709 123.653 50.8752C121.598 51.1991 119.531 51.2901 117.455 51.1855C113.906 51.0067 110.506 50.2407 107.306 48.6884C104.97 47.5549 102.89 46.0846 101.166 44.1489C99.5129 42.2916 98.3173 40.1932 97.7179 37.7829C97.4425 36.676 97.303 35.5525 97.2911 34.4136C97.2905 34.3607 97.2935 34.3074 97.2984 34.2547C97.2997 34.2385 97.3127 34.2233 97.3349 34.1789C101.661 34.2731 106 34.3678 110.351 34.4626H110.352Z" fill="white"/>
<path d="M43.6983 21.1869C39.2261 21.1571 34.7687 21.1276 30.2915 21.0977V0.4953C34.7597 0.4953 39.2177 0.4953 43.6754 0.4953C43.7311 0.689063 43.757 20.5793 43.6983 21.1866V21.1869Z" fill="white"/>
<path d="M62.9611 0.515289V19.8186C63.0522 19.8258 63.1131 19.8341 63.1742 19.8349C63.3454 19.8367 63.5169 19.842 63.6879 19.8346C64.7074 19.7891 65.7176 19.9182 66.7309 19.9852C67.6119 20.0435 68.4929 20.1055 69.3739 20.1665C70.1288 20.2187 70.884 20.2714 71.6389 20.3251C71.6792 20.3281 71.7187 20.3416 71.8256 20.3645C71.7166 20.4146 71.6684 20.451 71.6165 20.4582C71.1356 20.5237 70.6552 20.6176 70.1718 20.6403C68.4344 20.722 66.6955 20.772 64.9578 20.8481C63.6078 20.9072 62.2581 20.9788 60.9091 21.0602C58.7587 21.1901 56.6083 21.3035 54.4523 21.2764C52.884 21.2567 51.3157 21.2479 49.7474 21.2335C49.6768 21.233 49.6064 21.2261 49.5012 21.2202C49.5012 20.9756 49.4899 20.7387 49.5039 20.5032C49.5226 20.1958 49.4596 19.9086 49.3535 19.6214C49.1693 19.1218 48.9995 18.6172 48.8301 18.1126C48.7428 17.8523 48.7812 17.7421 48.9984 17.5792C49.145 18.0024 49.2935 18.42 49.4344 18.8397C49.5894 19.302 49.7368 19.7667 49.8896 20.2296C49.9118 20.2966 49.941 20.3624 49.9754 20.4241C50.0511 20.5601 50.155 20.6275 50.3278 20.6022C50.9248 20.5154 51.5237 20.4422 52.1217 20.3619C52.8623 20.2623 53.6027 20.1606 54.343 20.0595C54.3952 20.0523 54.4469 20.0414 54.5204 20.0286C54.4863 19.8543 54.3771 19.7414 54.2702 19.6262C53.4977 18.7952 52.7238 17.9654 51.9546 17.1315C51.6091 16.7573 51.2732 16.3748 50.9329 15.9961C50.8913 15.9495 50.8512 15.9013 50.8074 15.8566C50.5932 15.6373 50.4233 15.6088 50.1569 15.7571C50.0081 15.8398 49.8664 15.9351 49.7203 16.023C49.6619 16.0578 49.6002 16.0874 49.5158 16.1323V0.525935C49.6984 0.470042 62.6016 0.454072 62.9608 0.515289H62.9611Z" fill="white"/>
<path d="M71.7603 56.4956C72.5076 56.5249 73.2382 56.432 73.9577 56.608C74.8135 56.8172 75.3261 57.4123 75.3618 58.2398C75.4013 59.1535 74.9577 59.8136 74.1095 60.1034C74.0673 60.1178 74.0245 60.1313 73.9472 60.1566C74.6018 61.0459 75.248 61.9231 75.9228 62.8398C75.7835 62.847 75.6897 62.8563 75.5961 62.8555C75.3175 62.8528 75.0386 62.8459 74.76 62.8408C74.5953 62.6207 74.4262 62.4035 74.2663 62.1802C73.8465 61.5934 73.4313 61.003 73.0124 60.4153C72.9537 60.3328 72.9079 60.2171 72.7235 60.2849C72.7218 60.479 72.7194 60.6871 72.7186 60.8952C72.7178 61.1079 72.7186 61.3208 72.7186 61.5335V62.8406C72.3967 62.869 72.0878 62.856 71.7603 62.8494V56.4956ZM72.7194 57.4144C72.7216 58.0923 72.7099 58.7489 72.7273 59.4151C73.1462 59.4335 73.5222 59.4247 73.8766 59.2701C74.2477 59.108 74.4384 58.7763 74.4232 58.3457C74.4083 57.922 74.2071 57.6468 73.8052 57.5046C73.46 57.3825 73.1051 57.3931 72.7197 57.4144H72.7194Z" fill="white"/>
<path d="M66.1814 56.5143H69.9326V57.3955H67.2147V58.9265H69.8566V59.8215H67.2477C67.186 60.0409 67.1709 61.5337 67.2215 61.9346C67.5163 61.978 67.8201 61.9476 68.1214 61.9532C68.4186 61.9588 68.7159 61.9543 69.0132 61.9543H69.9353V62.8065C69.7505 62.8661 66.545 62.8847 66.1812 62.8262V56.514L66.1814 56.5143Z" fill="white"/>
<path d="M60.3879 61.3096C60.1475 61.8206 59.91 62.3253 59.6676 62.8403H58.6714C58.6957 62.6558 61.5911 56.4887 61.8264 56.1294C62.8467 58.3641 63.8588 60.5817 64.8916 62.8437C64.6876 62.8485 64.5229 62.8539 64.3582 62.8557C64.1878 62.8576 64.0174 62.8563 63.8321 62.8563C63.6847 62.522 63.5445 62.197 63.3977 61.8747C63.3138 61.6905 63.2189 61.5114 63.1288 61.3298C62.9319 61.3232 62.7347 61.3118 62.5378 61.311C61.9251 61.3086 61.3127 61.3102 60.7001 61.3102H60.3879V61.3096ZM61.7947 58.248C61.4515 58.9879 61.1304 59.6799 60.8045 60.3826C61.2148 60.4326 62.5226 60.4177 62.7312 60.36C62.4261 59.672 62.1223 58.9866 61.795 58.2483L61.7947 58.248Z" fill="white"/>
</g>
<defs>
<clipPath id="clip0_202_171">
<rect width="140" height="63" fill="white"/>
</clipPath>
</defs>
</svg>
