<svg width="40" height="40" viewBox="0 0 40 40" fill="none" xmlns="http://www.w3.org/2000/svg">
<g id="icon/menu">
<path id="Union" fill-rule="evenodd" clip-rule="evenodd" d="M5 10.625C5 10.0727 5.41973 9.625 5.9375 9.625H34.0625C34.5803 9.625 35 10.0727 35 10.625C35 11.1773 34.5803 11.625 34.0625 11.625H5.9375C5.41973 11.625 5 11.1773 5 10.625ZM5 20C5 19.4477 5.41973 19 5.9375 19H34.0625C34.5803 19 35 19.4477 35 20C35 20.5523 34.5803 21 34.0625 21H5.9375C5.41973 21 5 20.5523 5 20ZM5.9375 28.375C5.41973 28.375 5 28.8227 5 29.375C5 29.9273 5.41973 30.375 5.9375 30.375L23.5156 30.375C24.0334 30.375 24.4531 29.9273 24.4531 29.375C24.4531 28.8227 24.0334 28.375 23.5156 28.375L5.9375 28.375Z" fill="white"/>
</g>
</svg>
