<svg width="116" height="30" viewBox="0 0 116 30" fill="none" xmlns="http://www.w3.org/2000/svg">
<g opacity="0.6" clip-path="url(#clip0_212_997)">
<path d="M34.9097 20.9666H43.1134V18.3952H37.8255V8.70947H34.9097V20.9666Z" fill="white"/>
<path d="M47.9738 19.2523C46.8042 19.2523 46.1947 18.1895 46.1947 16.5952C46.1947 15.0009 46.8042 13.9209 47.9738 13.9209C49.1434 13.9209 49.7694 15.0009 49.7694 16.5952C49.7694 18.1895 49.1434 19.2523 47.9738 19.2523ZM47.9903 21.2409C50.7084 21.2409 52.4875 19.2352 52.4875 16.5952C52.4875 13.9552 50.7084 11.9495 47.9903 11.9495C45.2886 11.9495 43.4766 13.9552 43.4766 16.5952C43.4766 19.2352 45.2886 21.2409 47.9903 21.2409Z" fill="white"/>
<path d="M57.1926 24.0009C58.4446 24.0009 59.5483 23.7095 60.2896 23.0238C60.965 22.3895 61.4098 21.4295 61.4098 20.1095V12.1895H58.84V13.1324H58.807C58.3128 12.3952 57.555 11.9324 56.4348 11.9324C54.3427 11.9324 52.8931 13.7495 52.8931 16.3209C52.8931 19.0124 54.6557 20.4867 56.5502 20.4867C57.5715 20.4867 58.214 20.0581 58.7082 19.4752H58.7741V20.3495C58.7741 21.4124 58.2963 22.0295 57.1597 22.0295C56.2701 22.0295 55.8253 21.6352 55.6771 21.1724H53.0743C53.3378 23.0067 54.8699 24.0009 57.1926 24.0009ZM57.1761 18.4124C56.1713 18.4124 55.5123 17.5552 55.5123 16.2352C55.5123 14.8981 56.1713 14.0409 57.1761 14.0409C58.2963 14.0409 58.8894 15.0352 58.8894 16.2181C58.8894 17.4524 58.3458 18.4124 57.1761 18.4124Z" fill="white"/>
<path d="M66.694 19.2523C65.5244 19.2523 64.9149 18.1895 64.9149 16.5952C64.9149 15.0009 65.5244 13.9209 66.694 13.9209C67.8636 13.9209 68.4896 15.0009 68.4896 16.5952C68.4896 18.1895 67.8636 19.2523 66.694 19.2523ZM66.7105 21.2409C69.4286 21.2409 71.2077 19.2352 71.2077 16.5952C71.2077 13.9552 69.4286 11.9495 66.7105 11.9495C64.0089 11.9495 62.1968 13.9552 62.1968 16.5952C62.1968 19.2352 64.0089 21.2409 66.7105 21.2409Z" fill="white"/>
<path d="M71.9912 20.9666H74.6764V12.1895H71.9912V20.9666ZM71.9912 10.9723H74.6764V8.70947H71.9912V10.9723Z" fill="white"/>
<path d="M75.8418 23.8638H78.527V20.0581H78.5599C79.0871 20.7952 79.8613 21.2409 80.9485 21.2409C83.156 21.2409 84.6221 19.4238 84.6221 16.5781C84.6221 13.9381 83.2548 11.9324 81.0144 11.9324C79.8613 11.9324 79.0376 12.4638 78.4611 13.2524H78.4116V12.1895H75.8418V23.8638ZM80.2567 19.0809C79.1035 19.0809 78.4446 18.1038 78.4446 16.6809C78.4446 15.2581 79.0376 14.1781 80.2072 14.1781C81.3604 14.1781 81.904 15.1724 81.904 16.6809C81.904 18.1724 81.278 19.0809 80.2567 19.0809Z" fill="white"/>
<path d="M88.994 21.2409C91.2014 21.2409 92.8323 20.2467 92.8323 18.3267C92.8323 16.0809 91.0861 15.6867 89.6035 15.4295C88.5327 15.2238 87.5773 15.1381 87.5773 14.5209C87.5773 13.9724 88.0879 13.7152 88.7469 13.7152C89.4882 13.7152 89.9988 13.9552 90.0977 14.7438H92.5687C92.4369 13.0124 91.152 11.9324 88.7633 11.9324C86.7701 11.9324 85.1227 12.8924 85.1227 14.7438C85.1227 16.8009 86.6877 17.2124 88.1538 17.4695C89.274 17.6752 90.2954 17.7609 90.2954 18.5495C90.2954 19.1152 89.7847 19.4238 88.9775 19.4238C88.0879 19.4238 87.5278 18.9952 87.429 18.1209H84.8921C84.9745 20.0581 86.523 21.2409 88.994 21.2409Z" fill="white"/>
<path d="M96.4799 21.2237C97.6495 21.2237 98.3908 20.7437 99.0003 19.8866H99.0497V20.9666H101.62V12.1895H98.9344V17.0923C98.9344 18.138 98.3743 18.858 97.4518 18.858C96.5952 18.858 96.1833 18.3266 96.1833 17.3666V12.1895H93.5146V17.9495C93.5146 19.9037 94.536 21.2237 96.4799 21.2237Z" fill="white"/>
<path d="M102.787 20.9667H105.472V16.0467C105.472 15.0009 105.966 14.2638 106.807 14.2638C107.614 14.2638 107.993 14.8124 107.993 15.7552V20.9667H110.678V16.0467C110.678 15.0009 111.156 14.2638 112.012 14.2638C112.819 14.2638 113.198 14.8124 113.198 15.7552V20.9667H115.883V15.2581C115.883 13.2867 114.928 11.9324 113.017 11.9324C111.93 11.9324 111.024 12.4124 110.365 13.4752H110.332C109.904 12.5324 109.063 11.9324 107.96 11.9324C106.741 11.9324 105.934 12.5324 105.406 13.4409H105.357V12.1895H102.787V20.9667Z" fill="white"/>
<path fill-rule="evenodd" clip-rule="evenodd" d="M14.1976 0.687012C21.9276 0.687012 28.194 7.20806 28.194 15.2522C28.194 23.2964 21.9276 29.8175 14.1976 29.8175C6.46757 29.8175 0.201172 23.2964 0.201172 15.2522C0.201172 7.20806 6.46757 0.687012 14.1976 0.687012ZM27.6568 15.2522C27.6568 7.51685 21.6309 1.24603 14.1976 1.24603C13.598 1.24603 13.0076 1.28683 12.4287 1.36591C12.8027 1.33188 13.1812 1.31451 13.5637 1.31451C20.6666 1.31451 26.4246 7.30656 26.4246 14.6981C26.4246 22.0896 20.6666 28.0817 13.5637 28.0817C6.83913 28.0817 1.31998 22.7111 0.751083 15.8667C1.06013 23.317 6.96209 29.2584 14.1976 29.2584C21.6309 29.2584 27.6568 22.9876 27.6568 15.2522ZM25.8874 14.6981C25.8874 7.61528 20.3699 1.87353 13.5637 1.87353C13.011 1.87353 12.4669 1.91138 11.9335 1.98473C12.2619 1.95598 12.5942 1.94131 12.9298 1.94131C19.4056 1.94131 24.6552 7.40435 24.6552 14.1433C24.6552 20.8823 19.4056 26.3453 12.9298 26.3453C6.80674 26.3453 1.77989 21.4612 1.25042 15.2325C1.51962 22.0675 6.92948 27.5227 13.5637 27.5227C20.3699 27.5227 25.8874 21.7809 25.8874 14.6981ZM12.9298 2.50033C19.1089 2.50033 24.1181 7.71306 24.1181 14.1433C24.1181 20.5735 19.1089 25.7862 12.9298 25.7862C6.89386 25.7862 1.97424 20.8122 1.74955 14.5881C2.23465 20.206 6.77121 24.6088 12.296 24.6088C18.1442 24.6088 22.8853 19.6751 22.8853 13.5891C22.8853 7.50313 18.1442 2.5695 12.296 2.5695C11.9934 2.5695 11.6938 2.58271 11.3977 2.60858C11.8986 2.53721 12.41 2.50033 12.9298 2.50033ZM22.348 13.5891C22.348 7.81192 17.8476 3.12852 12.296 3.12852C11.8269 3.12852 11.3653 3.16195 10.9134 3.22665C11.1601 3.20655 11.4096 3.19631 11.6613 3.19631C16.8826 3.19631 21.1152 7.60092 21.1152 13.0343C21.1152 18.4677 16.8826 22.8723 11.6613 22.8723C6.74702 22.8723 2.7085 18.9703 2.25074 13.9811C2.44878 19.5767 6.87039 24.0498 12.296 24.0498C17.8476 24.0498 22.348 19.3664 22.348 13.5891ZM11.6613 3.75533C16.5858 3.75533 20.5779 7.9097 20.5779 13.0343C20.5779 18.159 16.5858 22.3133 11.6613 22.3133C6.83383 22.3133 2.90236 18.3211 2.74934 13.3361C3.16263 17.7148 6.71113 21.1359 11.0274 21.1359C15.6216 21.1359 19.3458 17.2603 19.3458 12.4795C19.3458 7.6987 15.6216 3.82311 11.0274 3.82311C10.8168 3.82311 10.6079 3.83126 10.4012 3.84727C10.8129 3.78667 11.2336 3.75533 11.6613 3.75533ZM18.8086 12.4795C18.8086 8.00742 15.3249 4.38213 11.0274 4.38213C10.6352 4.38213 10.2497 4.41233 9.873 4.47063C10.0449 4.45782 10.2185 4.4513 10.3936 4.4513C14.3602 4.4513 17.5758 7.79756 17.5758 11.9253C17.5758 16.0532 14.3602 19.3994 10.3936 19.3994C6.67667 19.3994 3.61921 16.4612 3.24902 12.6949C3.35876 17.0674 6.79928 20.5769 11.0274 20.5769C15.3249 20.5769 18.8086 16.9516 18.8086 12.4795ZM10.3936 5.01032C14.0636 5.01032 17.0386 8.10628 17.0386 11.9253C17.0386 15.7445 14.0636 18.8404 10.3936 18.8404C6.77036 18.8404 3.82443 15.8228 3.75003 12.0708C4.08474 15.2165 6.64769 17.663 9.75975 17.663C13.0992 17.663 15.8064 14.8458 15.8064 11.3706C15.8064 7.89535 13.0992 5.0781 9.75975 5.0781C9.63201 5.0781 9.50523 5.08222 9.37949 5.09034C9.71012 5.03765 10.0488 5.01032 10.3936 5.01032ZM15.2693 11.3706C15.2693 8.20406 12.8026 5.63712 9.75975 5.63712C9.45417 5.63712 9.15442 5.66301 8.86236 5.71278C8.94939 5.70801 9.03698 5.7056 9.12518 5.7056C11.8375 5.7056 14.0364 7.99378 14.0364 10.8164C14.0364 13.6391 11.8375 15.9273 9.12518 15.9273C6.61713 15.9273 4.54819 13.9708 4.25065 11.4446C4.28875 14.577 6.74066 17.104 9.75975 17.104C12.8026 17.104 15.2693 14.5371 15.2693 11.3706ZM9.12518 6.26461C11.5409 6.26461 13.4992 8.30249 13.4992 10.8164C13.4992 13.3303 11.5409 15.3682 9.12518 15.3682C6.70943 15.3682 4.75111 13.3303 4.75111 10.8164C4.75111 10.8104 4.75112 10.8043 4.75114 10.7983C5.00265 12.7141 6.58132 14.1901 8.4913 14.1901C10.5762 14.1901 12.2664 12.4313 12.2664 10.2616C12.2664 8.09192 10.5762 6.33311 8.4913 6.33311C8.44414 6.33311 8.39719 6.334 8.35045 6.33578C8.60187 6.28902 8.86078 6.26461 9.12518 6.26461ZM11.7291 10.2616C11.7291 8.40071 10.2795 6.89212 8.4913 6.89212C6.70304 6.89212 5.25339 8.40071 5.25339 10.2616C5.25339 12.1225 6.70304 13.6311 8.4913 13.6311C10.2795 13.6311 11.7291 12.1225 11.7291 10.2616Z" fill="white"/>
</g>
<defs>
<clipPath id="clip0_212_997">
<rect width="116" height="30" fill="white"/>
</clipPath>
</defs>
</svg>
