<svg width="20" height="20" viewBox="0 0 20 20" fill="none" xmlns="http://www.w3.org/2000/svg">
<path fill-rule="evenodd" clip-rule="evenodd" d="M4.26904 9.89728C4.26904 10.0601 4.33374 10.2163 4.44889 10.3315L8.83486 14.7174C9.07465 14.9572 9.46344 14.9572 9.70323 14.7174C9.94303 14.4776 9.94303 14.0888 9.70323 13.8491L6.36549 10.5113L15.117 10.5113C15.4561 10.5113 15.731 10.2364 15.731 9.89728C15.731 9.55816 15.4561 9.28324 15.117 9.28324L6.36549 9.28324L9.70323 5.9455C9.94303 5.70571 9.94303 5.31692 9.70323 5.07712C9.46344 4.83733 9.07465 4.83733 8.83486 5.07712L4.44889 9.46309C4.33374 9.57824 4.26904 9.73443 4.26904 9.89728Z" fill="white"/>
</svg>
