<svg width="20" height="20" viewBox="0 0 20 20" fill="none" xmlns="http://www.w3.org/2000/svg">
<path d="M16.5334 1.6001C17.0285 1.6001 17.5033 1.79676 17.8534 2.14683C18.2034 2.4969 18.4001 2.97169 18.4001 3.46676V16.5334C18.4001 17.0285 18.2034 17.5033 17.8534 17.8534C17.5033 18.2034 17.0285 18.4001 16.5334 18.4001H3.46676C2.97169 18.4001 2.4969 18.2034 2.14683 17.8534C1.79676 17.5033 1.6001 17.0285 1.6001 16.5334V3.46676C1.6001 2.97169 1.79676 2.4969 2.14683 2.14683C2.4969 1.79676 2.97169 1.6001 3.46676 1.6001H16.5334ZM16.0668 16.0668V11.1201C16.0668 10.3131 15.7462 9.53922 15.1756 8.96861C14.605 8.398 13.8311 8.07743 13.0241 8.07743C12.2308 8.07743 11.3068 8.56276 10.8588 9.29076V8.25476H8.25476V16.0668H10.8588V11.4654C10.8588 10.7468 11.4374 10.1588 12.1561 10.1588C12.5026 10.1588 12.835 10.2964 13.08 10.5415C13.3251 10.7865 13.4628 11.1189 13.4628 11.4654V16.0668H16.0668ZM5.22143 6.78943C5.63729 6.78943 6.03612 6.62423 6.33017 6.33017C6.62423 6.03612 6.78943 5.63729 6.78943 5.22143C6.78943 4.35343 6.08943 3.6441 5.22143 3.6441C4.8031 3.6441 4.4019 3.81028 4.10609 4.10609C3.81028 4.4019 3.6441 4.8031 3.6441 5.22143C3.6441 6.08943 4.35343 6.78943 5.22143 6.78943ZM6.51876 16.0668V8.25476H3.93343V16.0668H6.51876Z" fill="white"/>
</svg>
