<svg width="20" height="20" viewBox="0 0 20 20" fill="none" xmlns="http://www.w3.org/2000/svg">
<g id="social icons">
<path id="Vector" d="M10.9085 1.16613C11.5532 1.16365 12.1979 1.17013 12.8424 1.18556L13.0138 1.19175C13.2117 1.19881 13.4069 1.20765 13.6428 1.21825C14.5828 1.26242 15.2242 1.41085 15.787 1.62906C16.3701 1.85347 16.8613 2.15738 17.3525 2.64859C17.8016 3.08998 18.1492 3.62389 18.3711 4.21321C18.5893 4.77598 18.7378 5.41827 18.7819 6.35828C18.7925 6.59328 18.8014 6.78941 18.8084 6.98731L18.8137 7.1587C18.8294 7.80292 18.8362 8.44733 18.8341 9.09174L18.835 9.7508V10.9081C18.8371 11.5529 18.8304 12.1976 18.8146 12.8421L18.8093 13.0135C18.8023 13.2114 18.7934 13.4066 18.7828 13.6425C18.7387 14.5825 18.5885 15.2239 18.3711 15.7867C18.15 16.3766 17.8023 16.911 17.3525 17.3522C16.9107 17.8013 16.3765 18.1489 15.787 18.3708C15.2242 18.589 14.5828 18.7375 13.6428 18.7816C13.4069 18.7922 13.2117 18.8011 13.0138 18.8081L12.8424 18.8134C12.1979 18.8291 11.5532 18.8359 10.9085 18.8338L10.2494 18.8346H9.09293C8.44822 18.8368 7.80352 18.83 7.15901 18.8143L6.98762 18.809C6.77789 18.8014 6.56821 18.7926 6.35859 18.7825C5.41857 18.7383 4.77717 18.5882 4.21352 18.3708C3.62397 18.1494 3.08996 17.8017 2.64889 17.3522C2.19925 16.9107 1.85132 16.3764 1.62937 15.7867C1.41115 15.2239 1.26273 14.5825 1.21856 13.6425C1.20872 13.4329 1.19988 13.2232 1.19205 13.0135L1.18764 12.8421C1.17135 12.1976 1.16398 11.5529 1.16555 10.9081V9.09174C1.16308 8.44733 1.16956 7.80293 1.18499 7.1587L1.19117 6.98731C1.19824 6.78941 1.20707 6.59328 1.21767 6.35828C1.26185 5.41738 1.41027 4.77687 1.62849 4.21321C1.85057 3.6236 2.19918 3.08983 2.64978 2.64947C3.09054 2.19957 3.62421 1.85132 4.21352 1.62906C4.77717 1.41085 5.41769 1.26242 6.35859 1.21825L6.98762 1.19175L7.15901 1.18733C7.80322 1.17105 8.44763 1.16369 9.09204 1.16524L10.9085 1.16613ZM10.0002 5.58348C9.41496 5.5752 8.83385 5.68333 8.29071 5.90159C7.74757 6.11984 7.25323 6.44387 6.83641 6.85484C6.41958 7.26581 6.0886 7.75552 5.86268 8.29552C5.63677 8.83552 5.52043 9.41503 5.52043 10.0004C5.52043 10.5857 5.63677 11.1653 5.86268 11.7053C6.0886 12.2452 6.41958 12.735 6.83641 13.1459C7.25323 13.5569 7.74757 13.8809 8.29071 14.0992C8.83385 14.3174 9.41496 14.4256 10.0002 14.4173C11.1718 14.4173 12.2954 13.9519 13.1238 13.1235C13.9522 12.2951 14.4176 11.1715 14.4176 9.99994C14.4176 8.82839 13.9522 7.70482 13.1238 6.8764C12.2954 6.04799 11.1718 5.58348 10.0002 5.58348ZM10.0002 7.35042C10.3523 7.34393 10.7022 7.40766 11.0293 7.53789C11.3565 7.66813 11.6544 7.86225 11.9057 8.10891C12.157 8.35558 12.3566 8.64985 12.4929 8.97454C12.6292 9.29922 12.6994 9.64781 12.6995 9.99993C12.6995 10.3521 12.6294 10.7007 12.4933 11.0254C12.3571 11.3501 12.1575 11.6445 11.9063 11.8912C11.6551 12.138 11.3572 12.3322 11.0301 12.4625C10.703 12.5929 10.3532 12.6567 10.0011 12.6504C9.2982 12.6504 8.62406 12.3711 8.12701 11.8741C7.62996 11.377 7.35072 10.7029 7.35072 9.99994C7.35072 9.29701 7.62996 8.62287 8.12701 8.12582C8.62406 7.62877 9.2982 7.34953 10.0011 7.34953L10.0002 7.35042ZM14.6385 4.25827C14.3535 4.26968 14.0839 4.39092 13.8863 4.59661C13.6887 4.8023 13.5783 5.07648 13.5783 5.36173C13.5783 5.64697 13.6887 5.92115 13.8863 6.12684C14.0839 6.33253 14.3535 6.45377 14.6385 6.46518C14.9314 6.46518 15.2122 6.34883 15.4194 6.14173C15.6265 5.93462 15.7428 5.65373 15.7428 5.36084C15.7428 5.06795 15.6265 4.78706 15.4194 4.57996C15.2122 4.37285 14.9314 4.2565 14.6385 4.2565V4.25827Z" fill="white"/>
</g>
</svg>
